<mxfile host="app.diagrams.net">
  <diagram id="DataToolkitLowCode" name="DataToolkit Low-Code Flow">
    <mxGraphModel dx="1372" dy="805" grid="1" gridSize="10" guides="1" tooltips="1" connect="1" arrows="1" fold="1" page="1" pageScale="1" pageWidth="850" pageHeight="1100" math="0" shadow="0">
      <root>
        <mxCell id="0"/>
        <mxCell id="1" parent="0"/>
        
        <!-- Usuario -->
        <mxCell id="2" value="Usuario / Desarrollador&#10;(usa Builder / CLI)" style="shape=rectangle;whiteSpace=wrap;rounded=1;fillColor=#dae8fc;strokeColor=#6c8ebf;" vertex="1" parent="1">
          <mxGeometry x="300" y="20" width="220" height="60" as="geometry"/>
        </mxCell>
        
        <!-- Builder -->
        <mxCell id="3" value="DataToolkit.Builder&#10;(Generador de Código)" style="shape=rectangle;whiteSpace=wrap;rounded=1;fillColor=#ffe6cc;strokeColor=#d79b00;" vertex="1" parent="1">
          <mxGeometry x="300" y="120" width="220" height="60" as="geometry"/>
        </mxCell>
        
        <!-- Metadata Reader -->
        <mxCell id="4" value="Metadata Reader&#10;(Schema Extract)" style="shape=rectangle;whiteSpace=wrap;rounded=1;fillColor=#fff2cc;strokeColor=#d6b656;" vertex="1" parent="1">
          <mxGeometry x="40" y="220" width="200" height="60" as="geometry"/>
        </mxCell>
        
        <!-- Generador Artefactos -->
        <mxCell id="5" value="Generador de Artefactos&#10;(DTO, CQRS, Controller, Repo)" style="shape=rectangle;whiteSpace=wrap;rounded=1;fillColor=#d5e8d4;strokeColor=#82b366;" vertex="1" parent="1">
          <mxGeometry x="300" y="220" width="220" height="60" as="geometry"/>
        </mxCell>
        
        <!-- Validación -->
        <mxCell id="6" value="Validación / Logging&#10;(SQL, mapping, naming)" style="shape=rectangle;whiteSpace=wrap;rounded=1;fillColor=#f8cecc;strokeColor=#b85450;" vertex="1" parent="1">
          <mxGeometry x="560" y="220" width="220" height="60" as="geometry"/>
        </mxCell>
        
        <!-- EntityMetadataHelper -->
        <mxCell id="7" value="EntityMetadataHelper (Cache)&#10;- ColumnMappings&#10;- Keys&#10;- TableName" style="shape=rectangle;whiteSpace=wrap;rounded=1;fillColor=#e1d5e7;strokeColor=#9673a6;" vertex="1" parent="1">
          <mxGeometry x="40" y="340" width="280" height="80" as="geometry"/>
        </mxCell>
        
        <!-- DataToolkit.Library -->
        <mxCell id="8" value="DataToolkit.Library (Core)&#10;- GenericRepository&lt;T&gt;&#10;- SqlExecutor&#10;- Custom TypeMap&#10;- Metadata Cache" style="shape=rectangle;whiteSpace=wrap;rounded=1;fillColor=#cce5ff;strokeColor=#4a86e8;" vertex="1" parent="1">
          <mxGeometry x="360" y="340" width="300" height="100" as="geometry"/>
        </mxCell>
        
        <!-- Dapper -->
        <mxCell id="9" value="Dapper ORM&#10;(QueryAsync, Map Entities)" style="shape=rectangle;whiteSpace=wrap;rounded=1;fillColor=#f4cccc;strokeColor=#cc0000;" vertex="1" parent="1">
          <mxGeometry x="400" y="480" width="220" height="60" as="geometry"/>
        </mxCell>
        
        <!-- Database -->
        <mxCell id="10" value="Base de Datos (SQL / Sybase)&#10;- Tablas, Vistas, SPs" style="shape=rectangle;whiteSpace=wrap;rounded=1;fillColor=#d9ead3;strokeColor=#6aa84f;" vertex="1" parent="1">
          <mxGeometry x="400" y="580" width="220" height="60" as="geometry"/>
        </mxCell>
        
        <!-- Arrows -->
        <mxCell id="11" style="edgeStyle=orthogonalEdgeStyle;rounded=0;orthogonalLoop=1;jettySize=auto;html=1;" edge="1" parent="1" source="2" target="3">
          <mxGeometry relative="1" as="geometry"/>
        </mxCell>
        
        <mxCell id="12" style="edgeStyle=orthogonalEdgeStyle;rounded=0;orthogonalLoop=1;jettySize=auto;html=1;" edge="1" parent="1" source="3" target="4">
          <mxGeometry relative="1" as="geometry"/>
        </mxCell>
        
        <mxCell id="13" style="edgeStyle=orthogonalEdgeStyle;rounded=0;orthogonalLoop=1;jettySize=auto;html=1;" edge="1" parent="1" source="3" target="5">
          <mxGeometry relative="1" as="geometry"/>
        </mxCell>
        
        <mxCell id="14" style="edgeStyle=orthogonalEdgeStyle;rounded=0;orthogonalLoop=1;jettySize=auto;html=1;" edge="1" parent="1" source="3" target="6">
          <mxGeometry relative="1" as="geometry"/>
        </mxCell>
        
        <mxCell id="15" style="edgeStyle=orthogonalEdgeStyle;rounded=0;orthogonalLoop=1;jettySize=auto;html=1;" edge="1" parent="1" source="4" target="7">
          <mxGeometry relative="1" as="geometry"/>
        </mxCell>
        
        <mxCell id="16" style="edgeStyle=orthogonalEdgeStyle;rounded=0;orthogonalLoop=1;jettySize=auto;html=1;" edge="1" parent="1" source="7" target="8">
          <mxGeometry relative="1" as="geometry"/>
        </mxCell>
        
        <mxCell id="17" style="edgeStyle=orthogonalEdgeStyle;rounded=0;orthogonalLoop=1;jettySize=auto;html=1;" edge="1" parent="1" source="8" target="9">
          <mxGeometry relative="1" as="geometry"/>
        </mxCell>
        
        <mxCell id="18" style="edgeStyle=orthogonalEdgeStyle;rounded=0;orthogonalLoop=1;jettySize=auto;html=1;" edge="1" parent="1" source="9" target="10">
          <mxGeometry relative="1" as="geometry"/>
        </mxCell>
        
      </root>
    </mxGraphModel>
  </diagram>
</mxfile>

